<svg id="Layer_1" data-name="Layer 1" xmlns="http://www.w3.org/2000/svg" xmlns:xlink="http://www.w3.org/1999/xlink" viewBox="0 0 572 570"><defs><style>.cls-1{fill:url(#linear-gradient);}.cls-2{fill:url(#linear-gradient-2);}.cls-3{fill:url(#linear-gradient-3);}</style><linearGradient id="linear-gradient" x1="23.01" y1="288.5" x2="548" y2="288.5" gradientUnits="userSpaceOnUse"><stop offset="0" stop-color="#427bca"/><stop offset="1" stop-color="#49aedf"/></linearGradient><linearGradient id="linear-gradient-2" x1="53" y1="288.5" x2="518" y2="288.5" xlink:href="#linear-gradient"/><linearGradient id="linear-gradient-3" x1="55.42" y1="335.23" x2="437.56" y2="335.23" xlink:href="#linear-gradient"/></defs><title>Electrician_logoArtboard 5</title><path class="cls-1" d="M476.18,108.1A262.5,262.5,0,0,0,23.1,281.23c-1.61,58.21,18.7,117,52.2,163.46l9.88-6.82C53.12,393.53,33.56,337.18,35.1,281.56A250.5,250.5,0,0,1,467.47,116.34a250.55,250.55,0,0,1-325,377.89c-3,2.77-6.15,5.47-9.28,8.15a262.53,262.53,0,0,0,343-394.28Z"/><path class="cls-2" d="M437,448.67A220.68,220.68,0,0,1,163.1,472a116.13,116.13,0,0,1-7.63,9.33A232.54,232.54,0,0,0,454.39,128.71,232.52,232.52,0,0,0,97,424.7l9.92-6.76A220.51,220.51,0,0,1,445.67,137,220.48,220.48,0,0,1,437,448.67Z"/><path class="cls-3" d="M209.26,417.15c32.22,14.14,63.39,11.14,92.63-8.92,7.88-5.41,14.89-11.66,21.67-17.7,2.52-2.26,5.14-4.59,7.72-6.81.32-.27.87-.74,1.39-1.15,3.95,4,11.55,8.49,21.83-.63q9.22-8.18,18.39-16.41,7.68-6.87,15.38-13.74c4-3.52,6.05-7.42,6.22-11.59s-1.54-8.09-5.09-11.8c-1.57-1.64-3.07-3.39-4.65-5.25-2.24-2.6-4.55-5.3-7.19-7.83a10.17,10.17,0,0,1-2.59-3.24c.12-.3.7-1.39,3-3.36,13-10.91,25.69-22.44,38-33.6l10.42-9.43.45-.4c4.61-4.15,10.93-9.83,10.68-19.34-.32-12.43-6.71-18.06-12-20.59-6.11-2.92-15.5-4.52-25.49,4.41q-8.64,7.71-17.28,15.39c-11.56,10.28-23.51,20.91-35.18,31.47a9.51,9.51,0,0,1-2.58,1.85,7.94,7.94,0,0,1-1.8-1.67c-10.94-12.74-22.09-25-31.55-35.38a9.84,9.84,0,0,1-1.21-1.57,11,11,0,0,1,1.78-1.83c18.25-15.83,36.46-32.26,51.87-46.25,10.94-9.92,12.29-23.85,3.3-33.87-8.41-9.37-22-9.21-33.16.4-6.05,5.22-12.06,10.63-17.87,15.86l-8.11,7.27c-2.4,2.14-4.91,4.3-7.34,6.39-5.82,5-11.84,10.2-17.34,15.92a10.32,10.32,0,0,1-3.14,2.51,11.44,11.44,0,0,1-3.08-3.14c-2.19-2.87-4.58-5.45-6.89-7.94-1.68-1.81-3.27-3.53-4.73-5.3-3.33-4-7.07-6.21-11.14-6.52s-7.77,1.18-11.37,4.41l-4.58,4.09q-15.66,14-31.33,28c-4.91,4.38-8.52,12-2.51,19.13a6.88,6.88,0,0,1,.78,1.07,17.32,17.32,0,0,1-2.64,2.72l-4.57,4c-6.43,5.68-13.09,11.54-19.17,18a95.71,95.71,0,0,0-25.61,52.48,93.1,93.1,0,0,0,10.15,57.3,13.8,13.8,0,0,1,1.77,5.06L55.42,481.27,65,491c3.25-2.91,113.75-104.43,113.75-104.43l.48-2c1.28-5.2.33-10.68-2.91-16.76-16.43-30.86-11.24-67.48,13.22-93.3,5.65-6,12.06-11.61,18.26-17.07l4.62-4.08c2.85-2.54,5.65-5.42,6.9-9.3,1-3.13,1.27-7.89-2.83-13.33l.31-.3,31.34-28,4.58-4.09a6.32,6.32,0,0,1,.84-.66,8.24,8.24,0,0,1,1.2,1.23c1.72,2.08,3.53,4,5.27,5.91,2.17,2.34,4.23,4.55,6,6.87,2.73,3.59,7.1,8.4,13.59,8.78,4.85.28,9.51-2,14.24-6.89,5-5.25,10.54-10,16.37-15,2.47-2.13,5-4.33,7.52-6.56q4.1-3.65,8.15-7.31c5.76-5.18,11.72-10.54,17.66-15.67,3.83-3.31,9.6-5.74,13.25-1.67,5.06,5.64.75,11.08-2.27,13.82-15.36,13.93-33.49,30.29-51.64,46-2.77,2.41-6.49,6.24-6.81,11.78-.24,4.08,1.42,8,5.07,12,9.38,10.26,20.44,22.46,31.25,35,3.62,4.21,7.45,6.39,11.7,6.66,6.45.41,11.41-4.08,13-5.55,11.64-10.52,23.56-21.13,35.1-31.4q8.65-7.7,17.3-15.41c4.17-3.72,7-3.56,9.86-2.17h0c2,.93,3.77,2.55,3.91,8.09.07,2.66-1.86,4.69-6,8.39l-.46.42q-5.24,4.71-10.45,9.45c-12.2,11.07-24.82,22.51-37.58,33.25-3.4,2.85-7.93,7.38-8.14,13.81s3.9,11,7,14c2.13,2,4.12,4.36,6.22,6.81,1.64,1.92,3.34,3.9,5.17,5.82a6.51,6.51,0,0,1,1.08,1.39,7.54,7.54,0,0,1-1.37,1.52q-7.72,6.87-15.42,13.77-9.15,8.19-18.34,16.37a12.52,12.52,0,0,1-2,1.52c-.11-.1-.25-.25-.42-.43-4.85-5.42-10.07-5-12.74-4.26-3.13.86-5.52,2.76-7.89,4.79-2.69,2.31-5.36,4.69-7.93,7-6.74,6-13.11,11.69-20.25,16.59-25.26,17.32-51,19.82-78.84,7.62-6.37-2.8-14.05-1.77-14.9-1.64l-2.29.33S84.78,505,81.67,508.13l11.09,11.33,111.48-103A13.55,13.55,0,0,1,209.26,417.15Z"/></svg>